<?xml version="1.0" encoding="utf-8"?>
<!-- Generator: Adobe Illustrator 16.0.0, SVG Export Plug-In . SVG Version: 6.00 Build 0)  -->
<!DOCTYPE svg PUBLIC "-//W3C//DTD SVG 1.1//EN" "http://www.w3.org/Graphics/SVG/1.1/DTD/svg11.dtd">
<svg version="1.1" id="Layer_1" xmlns="http://www.w3.org/2000/svg" xmlns:xlink="http://www.w3.org/1999/xlink" x="0px" y="0px"
	 width="154.347px" height="98.988px" viewBox="0 0 154.347 98.988" enable-background="new 0 0 154.347 98.988"
	 xml:space="preserve">
<path fill="#72BF44" d="M97.166,0C68.046,0,44.358,23.688,44.358,52.805h3.871c0-26.983,21.952-48.935,48.937-48.935
	c26.982,0,48.936,21.952,48.936,48.935h3.873C149.974,23.688,126.283,0,97.166,0"/>
<path fill="#72BF44" d="M97.166,7.173c-25.164,0-45.635,20.471-45.635,45.634h3.87c0-23.028,18.737-41.764,41.765-41.764
	s41.764,18.736,41.764,41.764h3.869C142.798,27.644,122.328,7.173,97.166,7.173"/>
<path fill="#72BF44" d="M97.166,14.346c-21.209,0-38.462,17.253-38.462,38.461h3.87c0-19.074,15.52-34.591,34.592-34.591
	s34.59,15.517,34.59,34.591h3.871C135.626,31.599,118.375,14.346,97.166,14.346"/>
<path fill="#72BF44" d="M97.166,21.518c-17.252,0-31.288,14.035-31.288,31.287h3.87c0-15.118,12.299-27.416,27.418-27.416
	c15.117,0,27.416,12.298,27.416,27.416h3.871C128.453,35.553,114.417,21.518,97.166,21.518"/>
<path fill="#72BF44" d="M97.166,28.69c-13.299,0-24.115,10.819-24.115,24.117h3.869c0-11.163,9.082-20.245,20.246-20.245
	c11.162,0,20.244,9.082,20.244,20.245h3.869C121.279,39.509,110.462,28.69,97.166,28.69"/>
<path fill="#231F20" d="M1.911,74.645c0,3.72,2.84,4.161,4.249,4.161c0.462,0,0.748-0.045,0.748-0.045v-1.894
	c0,0-0.197,0.044-0.507,0.044c-0.813,0-2.354-0.285-2.354-2.51v-5.107H6.71v-1.717H4.046v-3.06H1.955v3.06H0.458v1.717h1.453V74.645
	z"/>
<path fill="#231F20" d="M8.642,65.486v13.231h2.135V73.5c0-0.529,0.044-1.035,0.199-1.476c0.462-1.607,1.827-2.752,3.521-2.752
	c1.783,0,2.113,1.232,2.113,2.797v5.238c0,0.991,0.419,1.409,1.409,1.409h2.092V76.89h-0.902c-0.309,0-0.484-0.154-0.484-0.484
	v-4.821c0-2.839-1.189-4.271-3.809-4.271c-2.224,0-3.654,1.408-4.14,2.487h-0.044c0,0,0.044-0.396,0.044-0.925v-4.338
	c0-0.945-0.418-1.364-1.409-1.364H7.255v1.827h0.902C8.466,65.001,8.642,65.156,8.642,65.486"/>
<path fill="#231F20" d="M26.832,78.982c2.644,0,4.293-1.63,4.293-1.63l-0.924-1.519c0,0-1.343,1.299-3.259,1.299
	c-1.981,0-3.698-1.343-3.831-3.721h8.125c0,0,0.064-0.595,0.064-0.88c0-2.884-1.673-5.218-4.799-5.218
	c-3.17,0-5.592,2.289-5.592,5.834C20.91,76.45,23.31,78.982,26.832,78.982 M26.48,69.009c1.387,0,2.554,0.99,2.62,2.84h-5.9
	C23.53,70,24.851,69.009,26.48,69.009"/>
<path fill="#231F20" d="M50.983,70.343c0.173-0.385,0.357-0.887,0.51-1.336c0,0.407,0.012,0.864,0.047,1.271l0.528,6.959
	c0.084,1.005,0.4,1.674,1.667,1.674h2.681v-2.83h-0.875c-0.163,0-0.273-0.052-0.292-0.306l-1.026-12.881h-3.3l-3.266,7.56
	c-0.227,0.547-0.464,1.203-0.614,1.635c-0.151-0.432-0.389-1.089-0.615-1.638l-3.266-7.557h-3.299l-1.027,12.881
	c-0.018,0.254-0.129,0.306-0.291,0.306h-0.876v2.83h2.682c1.1,0,1.59-0.485,1.688-1.677l0.506-6.954
	c0.035-0.407,0.047-0.868,0.048-1.281c0.152,0.455,0.337,0.96,0.51,1.345l2.648,5.881h2.583L50.983,70.343z"/>
<path fill="#231F20" d="M63.206,67.033c-3.611,0-6.335,2.609-6.335,6.07s2.724,6.072,6.335,6.072c3.625,0,6.358-2.611,6.358-6.072
	S66.831,67.033,63.206,67.033 M63.206,76.412c-1.785,0-3.131-1.422-3.131-3.309c0-1.885,1.346-3.307,3.131-3.307
	c1.798,0,3.154,1.422,3.154,3.307C66.36,74.99,65.003,76.412,63.206,76.412"/>
<path fill="#231F20" d="M77.496,69.972c1.129,0,1.57,0.588,1.57,2.097v5.151c0,1.168,0.521,1.69,1.689,1.69h2.855v-2.742h-1.072
	c-0.201,0-0.293-0.089-0.293-0.291v-4.381c0-2.962-1.381-4.464-4.109-4.464c-2.043,0-3.203,1.085-3.77,1.854v-0.142
	c0-0.92-0.607-1.448-1.668-1.448h-2.77v2.764h1.074c0.213,0,0.291,0.08,0.291,0.291v8.56h3.158v-5.345
	c0-0.535,0.072-1.018,0.215-1.442C75.058,70.796,76.144,69.972,77.496,69.972"/>
<path fill="#231F20" d="M90.103,79.175c2.844,0,4.576-1.68,4.65-1.752l0.107-0.106l-1.367-2.271l-0.174,0.162
	c-0.014,0.012-1.309,1.203-3.018,1.203c-1.666,0-2.879-1.025-3.148-2.631h7.705l0.016-0.174c0.004-0.03,0.068-0.719,0.068-1.055
	c0-3.301-2.078-5.521-5.17-5.521c-3.471,0-5.895,2.497-5.895,6.071C83.878,76.622,86.496,79.175,90.103,79.175 M87.269,71.458
	c0.348-1.201,1.248-1.883,2.504-1.883c1.014,0,1.789,0.78,1.906,1.883H87.269z"/>
<path fill="#231F20" d="M97.957,80.792c-0.824,0-1.457-0.698-1.465-0.706l-0.182-0.204l-1.277,2.345l0.096,0.101
	c0.047,0.05,1.156,1.207,2.98,1.207c1.932,0,3.473-1.112,4.23-3.051l4.029-10.148c0.092-0.227,0.172-0.275,0.459-0.275h0.523v-2.763
	h-2.086c-0.879,0-1.398,0.366-1.68,1.187l-1.914,5.613c-0.08,0.229-0.154,0.509-0.217,0.766c-0.066-0.259-0.148-0.541-0.238-0.772
	l-2.199-5.611c-0.316-0.851-0.781-1.182-1.656-1.182h-2.043v2.763h0.523c0.246,0,0.318,0.033,0.418,0.281l3.709,8.355l-0.342,0.784
	C99.281,80.326,98.687,80.792,97.957,80.792"/>
<path fill="#231F20" d="M13.694,95.537l-4.67-12.83H5.738L1.045,95.541c-0.104,0.309-0.199,0.353-0.5,0.353H0v2.83h1.932
	c1.171,0,1.622-0.315,2.009-1.405l0.923-2.602h5.013l0.923,2.602c0.383,1.076,0.856,1.405,2.031,1.405h1.91v-2.83h-0.546
	C13.895,95.893,13.799,95.849,13.694,95.537 M7.371,86.64c0.122,0.5,0.295,1.164,0.456,1.648l1.255,3.663H5.659l1.257-3.665
	C7.075,87.804,7.249,87.14,7.371,86.64"/>
<path fill="#231F20" d="M26.522,95.69V84.396c0-1.137-0.553-1.689-1.69-1.689h-2.856v2.763h1.073c0.213,0,0.292,0.079,0.292,0.292
	v1.98c0,0.055,0,0.107,0.001,0.158c-0.447-0.433-1.384-1.055-3.067-1.055c-3.121,0-5.301,2.496-5.301,6.07
	c0,3.631,2.087,6.072,5.19,6.072c1.854,0,2.887-0.898,3.357-1.472c0.038,0.502,0.315,1.207,1.575,1.207h2.769v-2.742h-1.052
	C26.611,95.981,26.522,95.891,26.522,95.69 M20.781,96.246c-1.567,0-2.581-1.308-2.581-3.33c0-1.965,1.055-3.285,2.624-3.285
	c1.783,0,2.582,1.639,2.582,3.263C23.406,95.365,22.05,96.246,20.781,96.246"/>
<path fill="#231F20" d="M35.945,88.293l-2.115,5.903c-0.09,0.271-0.172,0.582-0.238,0.86c-0.068-0.28-0.156-0.594-0.256-0.864
	l-2.115-5.901c-0.314-0.851-0.828-1.183-1.831-1.183h-1.801v2.764h0.437c0.242,0,0.359,0.074,0.436,0.271l3.261,8.579h3.592
	l3.261-8.577c0.077-0.199,0.195-0.273,0.437-0.273h0.457v-2.764h-1.689C36.788,87.109,36.257,87.451,35.945,88.293"/>
<path fill="#231F20" d="M44.75,95.69v-6.892c0-1.152-0.531-1.689-1.669-1.689h-2.856v2.764h1.073c0.213,0,0.292,0.078,0.292,0.291
	v6.869c0,1.152,0.53,1.69,1.668,1.69h2.856v-2.742h-1.073C44.839,95.981,44.75,95.891,44.75,95.69"/>
<rect x="41.722" y="82.706" fill="#231F20" width="2.808" height="2.962"/>
<path fill="#231F20" d="M56.173,94.701c-0.013,0.014-1.372,1.457-3.183,1.457c-1.646,0-3.307-1.01-3.307-3.265
	c0-1.916,1.316-3.307,3.131-3.307c0.569,0,1.414,0.218,1.414,0.688v0.809h2.852V89.57c0-2-2.551-2.726-4.266-2.726
	c-4.159,0-6.336,3.056-6.336,6.071c0,3.518,2.637,6.07,6.27,6.07c3.115,0,4.812-2.009,4.881-2.096l0.088-0.104l-1.369-2.274
	L56.173,94.701z"/>
<path fill="#231F20" d="M63.86,86.845c-3.471,0-5.895,2.496-5.895,6.07c0,3.519,2.619,6.071,6.225,6.071
	c2.843,0,4.577-1.68,4.65-1.751l0.107-0.107l-1.368-2.271l-0.173,0.162c-0.014,0.012-1.308,1.203-3.019,1.203
	c-1.664,0-2.878-1.024-3.146-2.63h7.703l0.017-0.176c0.003-0.029,0.066-0.717,0.066-1.053C69.029,89.063,66.953,86.845,63.86,86.845
	 M63.86,89.388c1.015,0,1.79,0.779,1.908,1.881h-4.412C61.705,90.07,62.605,89.388,63.86,89.388"/>
<path fill="#231F20" d="M82.113,89.068c-1.434-0.617-2.672-1.151-2.672-2.141c0-0.871,0.863-1.48,2.096-1.48
	c0.908,0,1.879,0.41,1.879,1.019v0.897h2.982v-1.646c0-2.387-2.969-3.275-4.84-3.275c-3.135,0-5.41,1.934-5.41,4.596
	c0,2.921,2.555,4.095,4.607,5.037c1.475,0.679,2.748,1.264,2.748,2.272c0,1.146-1.031,1.657-2.055,1.657
	c-2.062,0-3.625-1.766-3.641-1.783l-0.152-0.174l-1.869,2.324l0.096,0.121c0.082,0.102,2.014,2.494,5.523,2.494
	c3.172,0,5.389-1.971,5.389-4.793C86.794,91.084,84.199,89.966,82.113,89.068"/>
<path fill="#231F20" d="M93.562,86.845c-3.473,0-5.896,2.496-5.896,6.07c0,3.519,2.619,6.071,6.227,6.071
	c2.842,0,4.576-1.68,4.648-1.751l0.107-0.107l-1.367-2.271l-0.174,0.162c-0.014,0.012-1.309,1.203-3.018,1.203
	c-1.664,0-2.879-1.024-3.146-2.63h7.703l0.016-0.176c0.004-0.029,0.068-0.717,0.068-1.053C98.73,89.063,96.652,86.845,93.562,86.845
	 M93.562,89.388c1.014,0,1.787,0.779,1.904,1.881h-4.41C91.404,90.07,92.306,89.388,93.562,89.388"/>
<path fill="#231F20" d="M107.107,86.955c-1.381,0-2.652,0.828-3.373,2.136v-0.425c0-1.032-0.568-1.557-1.689-1.557h-2.746v2.764
	h1.074c0.211,0,0.291,0.078,0.291,0.291v8.56h3.16v-4.642c0-0.619,0.078-1.217,0.232-1.771c0.496-1.636,1.811-2.219,2.875-2.219
	c0.377,0,0.652,0.042,0.654,0.042l0.221,0.033v-3.139l-0.16-0.027C107.634,87,107.363,86.955,107.107,86.955"/>
<path fill="#231F20" d="M116.886,88.293l-2.113,5.903c-0.09,0.271-0.172,0.582-0.238,0.86c-0.07-0.28-0.158-0.594-0.256-0.864
	l-2.115-5.901c-0.314-0.851-0.83-1.183-1.832-1.183h-1.801v2.764h0.436c0.242,0,0.359,0.074,0.438,0.271l3.26,8.579h3.592
	l3.262-8.577c0.076-0.199,0.193-0.273,0.436-0.273h0.457v-2.764h-1.689C117.73,87.109,117.199,87.451,116.886,88.293"/>
<rect x="122.664" y="82.706" fill="#231F20" width="2.809" height="2.962"/>
<path fill="#231F20" d="M125.693,95.69v-6.892c0-1.152-0.529-1.689-1.668-1.689h-2.857v2.764h1.074c0.211,0,0.291,0.078,0.291,0.291
	v6.869c0,1.152,0.529,1.69,1.668,1.69h2.857v-2.742h-1.074C125.783,95.981,125.693,95.891,125.693,95.69"/>
<path fill="#231F20" d="M137.117,94.701c-0.016,0.015-1.373,1.457-3.184,1.457c-1.646,0-3.309-1.01-3.309-3.265
	c0-1.916,1.318-3.307,3.131-3.307c0.572,0,1.416,0.218,1.416,0.688v0.809h2.852V89.57c0-2-2.551-2.726-4.268-2.726
	c-4.158,0-6.334,3.056-6.334,6.071c0,3.518,2.637,6.07,6.27,6.07c3.115,0,4.812-2.009,4.883-2.096l0.086-0.104l-1.369-2.274
	L137.117,94.701z"/>
<path fill="#231F20" d="M149.906,93.417c0.002-0.029,0.066-0.717,0.066-1.053c0-3.302-2.078-5.52-5.17-5.52
	c-3.471,0-5.895,2.496-5.895,6.07c0,3.519,2.619,6.071,6.227,6.071c2.842,0,4.576-1.68,4.648-1.751l0.107-0.107l-1.369-2.271
	l-0.174,0.162c-0.012,0.012-1.307,1.203-3.016,1.203c-1.664,0-2.879-1.024-3.146-2.63h7.703L149.906,93.417z M144.802,89.388
	c1.014,0,1.791,0.779,1.908,1.881h-4.412C142.646,90.07,143.548,89.388,144.802,89.388"/>
<g>
	<defs>
		<path id="SVGID_1_" d="M0,52.808h3.87c0-19.074,15.518-34.591,34.591-34.591c5.691,0,11.066,1.383,15.808,3.829
			c0.766-1.064,1.569-2.099,2.412-3.103c-5.428-2.93-11.633-4.598-18.22-4.598C17.253,14.345,0,31.599,0,52.808"/>
	</defs>
	<clipPath id="SVGID_2_">
		<use xlink:href="#SVGID_1_"  overflow="visible"/>
	</clipPath>
	
		<linearGradient id="SVGID_3_" gradientUnits="userSpaceOnUse" x1="-357.0728" y1="355.9663" x2="-356.0728" y2="355.9663" gradientTransform="matrix(64.1023 0 0 -64.1023 22889.1875 22851.8516)">
		<stop  offset="0" style="stop-color:#72BF44"/>
		<stop  offset="1" style="stop-color:#2F631C"/>
	</linearGradient>
	<rect x="0" y="14.345" clip-path="url(#SVGID_2_)" fill="url(#SVGID_3_)" width="56.681" height="38.463"/>
</g>
<g>
	<defs>
		<path id="SVGID_4_" d="M7.174,52.806h3.868c0-15.118,12.301-27.416,27.418-27.416c4.306,0,8.38,1.002,12.011,2.778
			c0.605-1.145,1.254-2.267,1.941-3.361c-4.204-2.104-8.94-3.288-13.952-3.288C21.209,21.519,7.174,35.554,7.174,52.806"/>
	</defs>
	<clipPath id="SVGID_5_">
		<use xlink:href="#SVGID_4_"  overflow="visible"/>
	</clipPath>
	
		<linearGradient id="SVGID_6_" gradientUnits="userSpaceOnUse" x1="-358.3008" y1="355.145" x2="-357.3002" y2="355.145" gradientTransform="matrix(51.1635 0 0 -51.1635 18339.0879 18207.6113)">
		<stop  offset="0" style="stop-color:#72BF44"/>
		<stop  offset="1" style="stop-color:#2F631C"/>
	</linearGradient>
	<rect x="7.174" y="21.519" clip-path="url(#SVGID_5_)" fill="url(#SVGID_6_)" width="45.238" height="31.287"/>
</g>
<g>
	<defs>
		<path id="SVGID_7_" d="M14.345,52.808h3.87c0-11.164,9.08-20.246,20.245-20.246c3.268,0,6.354,0.778,9.089,2.159
			c0.445-1.218,0.933-2.415,1.465-3.59c-3.19-1.559-6.771-2.44-10.554-2.44C25.163,28.691,14.345,39.51,14.345,52.808"/>
	</defs>
	<clipPath id="SVGID_8_">
		<use xlink:href="#SVGID_7_"  overflow="visible"/>
	</clipPath>
	
		<linearGradient id="SVGID_9_" gradientUnits="userSpaceOnUse" x1="-360.1514" y1="353.9058" x2="-359.1514" y2="353.9058" gradientTransform="matrix(39.2086 0 0 -39.2086 14135.3652 13916.877)">
		<stop  offset="0" style="stop-color:#72BF44"/>
		<stop  offset="1" style="stop-color:#2F631C"/>
	</linearGradient>
	<rect x="14.345" y="28.691" clip-path="url(#SVGID_8_)" fill="url(#SVGID_9_)" width="34.669" height="24.117"/>
</g>
<g>
	<defs>
		<path id="SVGID_10_" d="M21.521,52.808h3.87c0-7.209,5.863-13.072,13.069-13.072c2.597,0,5.017,0.761,7.053,2.072
			c0.28-1.321,0.61-2.624,0.989-3.906c-2.395-1.298-5.133-2.038-8.042-2.038C29.119,35.864,21.521,43.465,21.521,52.808"/>
	</defs>
	<clipPath id="SVGID_11_">
		<use xlink:href="#SVGID_10_"  overflow="visible"/>
	</clipPath>
	
		<linearGradient id="SVGID_12_" gradientUnits="userSpaceOnUse" x1="-363.207" y1="351.8677" x2="-362.2065" y2="351.8677" gradientTransform="matrix(28.2543 0 0 -28.2543 10283.6719 9986.1211)">
		<stop  offset="0" style="stop-color:#72BF44"/>
		<stop  offset="1" style="stop-color:#2F631C"/>
	</linearGradient>
	<rect x="21.521" y="35.864" clip-path="url(#SVGID_11_)" fill="url(#SVGID_12_)" width="24.981" height="16.944"/>
</g>
<g>
	<defs>
		<path id="SVGID_13_" d="M28.693,52.808h3.87c0-3.253,2.645-5.898,5.897-5.898c3.251,0,5.897,2.645,5.897,5.898v-0.002
			c0-2.497,0.178-4.952,0.514-7.356c-1.716-1.499-3.958-2.412-6.411-2.412C33.075,43.038,28.693,47.42,28.693,52.808"/>
	</defs>
	<clipPath id="SVGID_14_">
		<use xlink:href="#SVGID_13_"  overflow="visible"/>
	</clipPath>
	
		<linearGradient id="SVGID_15_" gradientUnits="userSpaceOnUse" x1="-369.2178" y1="347.8315" x2="-368.2178" y2="347.8315" gradientTransform="matrix(18.2991 0 0 -18.2991 6785.0435 6412.9067)">
		<stop  offset="0" style="stop-color:#72BF44"/>
		<stop  offset="1" style="stop-color:#2F631C"/>
	</linearGradient>
	<rect x="28.693" y="43.038" clip-path="url(#SVGID_14_)" fill="url(#SVGID_15_)" width="16.179" height="9.771"/>
</g>
<path fill="#231F20" d="M154.347,83.984c0,1.211-0.979,2.187-2.188,2.187c-1.211,0-2.188-0.976-2.188-2.187s0.977-2.187,2.188-2.187
	C153.369,81.797,154.347,82.773,154.347,83.984 M150.195,83.984c0,1.104,0.854,1.994,1.971,1.994c1.115,0,1.957-0.895,1.957-2
	c0-1.117-0.836-1.988-1.957-1.988C151.037,81.99,150.195,82.857,150.195,83.984 M151.363,82.693h0.973
	c0.584,0,0.842,0.244,0.842,0.713c0,0.42-0.299,0.625-0.666,0.684l0.77,1.188h-0.244l-0.777-1.193h-0.672v1.193h-0.225V82.693z
	 M151.587,83.89h0.549c0.391,0,0.818-0.041,0.818-0.49c0-0.398-0.346-0.515-0.654-0.515h-0.713V83.89z"/>
</svg>
